<svg xmlns="http://www.w3.org/2000/svg" version="1.1" xmlns:xlink="http://www.w3.org/1999/xlink" xmlns:svgjs="http://svgjs.com/svgjs" width="1275" height="300" transform="matrix(1,0,0,1,0,0)">
  <text font-family="DM Sans" font-size="260" text-anchor="left" x="310" charspacing="20px">
    <tspan dy="239.20000000000002" x="310">K-tab</tspan>
  </text>
  <path transform="matrix(0.7071067811865476,0.7071067811865475,-0.7071067811865475,0.7071067811865476,150,8.58)" d="M0,0L50,0L50,25L0,25ZM0,62.5A12.499999999999998,12.499999999999998,90,0,1,12.5,50L37.5,50A12.499999999999998,12.499999999999998,90,0,1,50,62.5L50,62.5A12.500000000000004,12.500000000000004,-270,0,1,37.5,75L12.5,75A12.499999999999998,12.499999999999998,90,0,1,0,62.5ZM50,162.5A12.499999999999998,12.499999999999998,90,0,1,62.5,150L100,150L100,175L62.5,175A12.499999999999998,12.499999999999998,90,0,1,50,162.5ZM50,112.5A12.499999999999998,12.499999999999998,90,0,1,62.5,100L100,100L100,125L62.5,125A12.499999999999998,12.499999999999998,90,0,1,50,112.5ZM50,0L100,0L100,25L50,25ZM100,0L150,0L150,25L100,25ZM100,62.5A12.499999999999998,12.499999999999998,90,0,1,112.5,50L150,50L150,75L112.5,75A12.499999999999998,12.499999999999998,90,0,1,100,62.5ZM100,100L150,100L150,125L100,125ZM100,150L150,150L150,175L100,175ZM150,150L187.5,150A12.499999999999998,12.499999999999998,90,0,1,200,162.5L200,162.5A12.500000000000004,12.500000000000004,-270,0,1,187.5,175L150,175ZM150,100L187.5,100A12.499999999999998,12.499999999999998,90,0,1,200,112.5L200,112.5A12.500000000000004,12.500000000000004,-270,0,1,187.5,125L150,125ZM150,50L187.5,50A12.499999999999998,12.499999999999998,90,0,1,200,62.5L200,62.5A12.500000000000004,12.500000000000004,-270,0,1,187.5,75L150,75ZM150,0L187.5,0A12.499999999999998,12.499999999999998,90,0,1,200,12.5L200,12.5A12.500000000000004,12.500000000000004,-270,0,1,187.5,25L150,25ZM0,162.5A12.499999999999998,12.499999999999998,90,0,1,12.5,150L150,150L150,175L12.5,175A12.499999999999998,12.499999999999998,90,0,1,0,162.5ZM0,0L150,0L150,25L0,25Z"/>
</svg>